Coordinates
version=1
nRows=11
nColumns=40
inDegrees=yes

Units are S.I. units (second, meters, Newtons, ...)
If the header above contains a line with 'inDegrees', this indicates whether rotational values are in degrees (yes) or radians (no).

endheader
time	pelvis_tilt	pelvis_list	pelvis_rotation	pelvis_tx	pelvis_ty	pelvis_tz	hip_flexion_r	hip_adduction_r	hip_rotation_r	knee_angle_r	knee_angle_r_beta	ankle_angle_r	subtalar_angle_r	mtp_angle_r	hip_flexion_l	hip_adduction_l	hip_rotation_l	knee_angle_l	knee_angle_l_beta	ankle_angle_l	subtalar_angle_l	mtp_angle_l	lumbar_extension	lumbar_bending	lumbar_rotation	arm_flex_r	arm_add_r	arm_rot_r	elbow_flex_r	pro_sup_r	wrist_flex_r	wrist_dev_r	arm_flex_l	arm_add_l	arm_rot_l	elbow_flex_l	pro_sup_l	wrist_flex_l	wrist_dev_l
      0.98800000	     86.63588750	     79.72967525	    -81.48583222	      1.48746168	      0.35437578	      0.97005991	     10.09895509	     -2.50334697	     -7.41251560	     35.27552220	      0.61567401	     -5.12457406	      0.00000000	      0.00000000	    -14.30371269	      1.45806890	      4.39593275	     10.86972346	      0.18971246	     -2.72375655	      0.00000000	      0.00000000	    -21.12320608	      1.85028227	     -7.45119596	     -3.96883782	    -16.65225190	      6.35988216	     40.27791062	     76.96760995	      0.00000000	      0.00000000	      4.94486522	    -23.60784867	     23.97226830	     50.11809626	     75.89307239	      0.00000000	      0.00000000
      0.99200000	     86.73391012	     79.85580223	    -81.58507591	      1.49259606	      0.35446980	      0.96938916	     10.56138112	     -2.52863679	     -7.60031104	     34.28527747	      0.59839098	     -5.35433576	      0.00000000	      0.00000000	    -14.64230673	      1.46763653	      4.25820749	     10.66078262	      0.18606576	     -2.61314007	      0.00000000	      0.00000000	    -21.01106814	      1.84420114	     -7.50568770	     -3.99509662	    -16.65502409	      6.34016951	     40.26932324	     76.98360443	      0.00000000	      0.00000000	      5.12278227	    -23.70713658	     24.07043031	     50.36876918	     75.88804468	      0.00000000	      0.00000000
      0.99600000	     86.92069641	     79.16876358	    -81.69026722	      1.49860090	      0.35477819	      0.97005457	      9.78190070	     -2.42040495	     -7.94656875	     32.70554448	      0.57081943	     -6.01319574	      0.00000000	      0.00000000	    -16.35731920	      1.36318398	      4.53640990	      9.49153001	      0.16565845	     -3.30694112	      0.00000000	      0.00000000	    -21.73009822	      1.95656498	     -7.48392116	     -4.19990320	    -16.61843727	      5.82787826	     40.42902823	     76.65302927	      0.00000000	      0.00000000	      5.46421013	    -23.77645001	     24.43777583	     50.50897456	     75.78212397	      0.00000000	      0.00000000
      1.00000000	     87.06499766	     79.28621647	    -81.88150289	      1.50371683	      0.35488648	      0.96936988	     10.21168841	     -2.44235683	     -8.07635238	     31.62944969	      0.55203804	     -6.56926140	      0.00000000	      0.00000000	    -16.71097896	      1.40406377	      4.34957033	      9.27152925	      0.16181871	     -3.11220502	      0.00000000	      0.00000000	    -21.64803451	      1.93189436	     -7.51591005	     -4.23168539	    -16.59894931	      5.72229109	     40.48745502	     76.54775999	      0.00000000	      0.00000000	      5.63858851	    -23.83301621	     24.50033910	     50.75147058	     75.75525845	      0.00000000	      0.00000000
      1.00400000	     87.11567335	     79.43315481	    -81.96532820	      1.50860613	      0.35508559	      0.96841621	     10.81108612	     -2.50221217	     -8.42291480	     30.90008023	      0.53930814	     -6.61936604	      0.00000000	      0.00000000	    -16.98692295	      1.44777183	      4.16429604	      9.11626091	      0.15910877	     -2.98197075	      0.00000000	      0.00000000	    -21.55656230	      1.92194842	     -7.52707973	     -4.21515884	    -16.62677785	      5.71350444	     40.50944762	     76.52579794	      0.00000000	      0.00000000	      5.89124289	    -23.86799447	     24.48202366	     51.02208374	     75.71088756	      0.00000000	      0.00000000
      1.00800000	     87.30424177	     79.44944890	    -82.06445914	      1.51378352	      0.35512563	      0.96787487	     10.95026607	     -2.45231506	     -8.62534292	     29.45973830	      0.51416943	     -7.81643580	      0.00000000	      0.00000000	    -17.51167632	      1.44014705	      4.28551424	      8.75275649	      0.15276442	     -2.94497761	      0.00000000	      0.00000000	    -21.58405254	      1.92472142	     -7.66763700	     -4.27769674	    -16.52563069	      5.49231846	     40.54547165	     76.38213919	      0.00000000	      0.00000000	      6.06359918	    -23.99050964	     24.67734566	     51.25105992	     75.61914622	      0.00000000	      0.00000000
      1.01200000	     87.37879600	     79.57364212	    -82.19081295	      1.51937827	      0.35536654	      0.96693513	     11.38581498	     -2.50707768	     -9.03398807	     28.55384801	      0.49835866	     -7.92374513	      0.00000000	      0.00000000	    -17.87659579	      1.47986283	      3.98455803	      8.54456111	      0.14913072	     -2.78274416	      0.00000000	      0.00000000	    -21.42168294	      1.90393771	     -7.66942120	     -4.37691152	    -16.57196266	      5.48101027	     40.56031300	     76.35938986	      0.00000000	      0.00000000	      6.19046443	    -24.00612824	     24.77011855	     51.43839782	     75.60218129	      0.00000000	      0.00000000
      1.01600000	     87.52905819	     79.62535079	    -82.31479874	      1.52466412	      0.35541625	      0.96615807	     11.66808707	     -2.52083658	     -9.47877158	     27.40554270	      0.47831695	     -8.55780633	      0.00000000	      0.00000000	    -18.31206010	      1.49021417	      3.78148544	      8.30140511	      0.14488685	     -2.67981653	      0.00000000	      0.00000000	    -21.39186575	      1.89367026	     -7.75663912	     -4.40715759	    -16.53786613	      5.42080197	     40.56413945	     76.31475398	      0.00000000	      0.00000000	      6.37262138	    -24.11409779	     24.93056591	     51.64149436	     75.60038558	      0.00000000	      0.00000000
      1.02000000	     87.60275800	     78.93226873	    -82.34572477	      1.53045632	      0.35544788	      0.96653010	     10.90969405	     -2.36249917	     -9.96106190	     25.87124275	      0.45153837	     -9.43649787	      0.00000000	      0.00000000	    -19.89575361	      1.36147509	      3.92891972	      7.38670385	      0.12892230	     -3.16150565	      0.00000000	      0.00000000	    -22.13656188	      1.99624357	     -7.69963032	     -4.52819179	    -16.46353937	      5.15954055	     40.65369777	     75.81124645	      0.00000000	      0.00000000	      6.73224049	    -24.19538873	     25.34225414	     51.80419210	     75.21261654	      0.00000000	      0.00000000
      1.02400000	     87.68217380	     79.11246865	    -82.46962802	      1.53581296	      0.35567922	      0.96532574	     11.45667503	     -2.42718137	    -10.43705579	     25.05800825	      0.43734475	     -9.61381362	      0.00000000	      0.00000000	    -20.16314135	      1.42000838	      3.71084211	      7.23980967	      0.12635852	     -2.96106388	      0.00000000	      0.00000000	    -21.95084276	      1.96790928	     -7.70283560	     -4.59209154	    -16.55338181	      5.09979698	     40.66980177	     75.87476874	      0.00000000	      0.00000000	      6.85541782	    -24.20513348	     25.34046770	     52.04534374	     75.19252657	      0.00000000	      0.00000000
      1.02800000	     87.78455962	     79.26402779	    -82.57631743	      1.54090971	      0.35569172	      0.96422324	     11.94829505	     -2.45042239	    -10.88712384	     24.16625544	      0.42178073	     -9.89568472	      0.00000000	      0.00000000	    -20.44350059	      1.44642022	      3.53870572	      7.08129375	      0.12359189	     -2.77281355	      0.00000000	      0.00000000	    -21.84006810	      1.94529528	     -7.72930000	     -4.59477509	    -16.49428632	      5.08734150	     40.59241960	     75.89120706	      0.00000000	      0.00000000	      7.04947127	    -24.26992526	     25.40465693	     52.24044654	     75.19239004	      0.00000000	      0.00000000
